<?xml version="1.0" standalone="no"?>
<!DOCTYPE svg PUBLIC "-//W3C//DTD SVG 20010904//EN"
 "http://www.w3.org/TR/2001/REC-SVG-20010904/DTD/svg10.dtd">
<svg version="1.0" xmlns="http://www.w3.org/2000/svg"
 width="219.000000pt" height="364.000000pt" viewBox="0 0 219.000000 364.000000"
 preserveAspectRatio="xMidYMid meet">

<g transform="translate(0.000000,364.000000) scale(0.100000,-0.100000)"
fill="#000000" stroke="none">
<path d="M850 3470 l0 -80 -80 0 -80 0 0 -80 0 -80 -80 0 -80 0 0 -80 0 -80
-80 0 -80 0 0 -160 0 -161 83 3 82 3 0 48 c0 45 1 47 33 53 18 4 47 4 65 0 26
-5 29 -4 13 5 -11 7 -39 9 -70 5 -37 -4 -47 -3 -36 5 11 8 12 12 3 16 -9 3
-13 32 -13 94 l0 89 86 0 c54 0 83 -4 79 -10 -3 -5 1 -10 10 -10 9 0 14 3 12
8 -3 4 23 5 56 2 l62 -5 -55 -3 c-74 -4 -92 -22 -88 -84 4 -62 23 -63 24 -1
l2 48 -8 -50 -7 -50 1 55 c1 40 5 54 14 52 8 -1 11 2 7 8 -4 6 18 10 62 9 37
-1 58 -4 46 -6 -24 -5 -30 -18 -13 -28 6 -3 10 -1 10 4 0 6 5 11 11 11 7 0 10
-20 7 -55 l-3 -55 245 0 c233 0 246 1 263 20 9 11 12 20 7 20 -6 0 -9 3 -9 8
1 4 0 16 -1 27 -2 11 -6 0 -10 -25 l-7 -45 -1 48 c-2 35 2 47 13 47 16 0 10
29 -9 42 -6 4 16 7 49 6 l60 -1 -45 -7 -45 -7 43 -1 c30 -2 44 3 48 13 5 12
26 15 105 15 l99 0 0 -86 c0 -72 -2 -85 -15 -80 -11 4 -15 -1 -15 -19 0 -14
-4 -25 -10 -25 -5 0 -7 7 -4 15 5 12 -3 15 -42 13 l-49 -1 45 -7 45 -8 -43 2
c-57 1 -54 20 5 27 l48 6 -50 1 c-27 1 -56 -2 -64 -7 -25 -16 6 -41 49 -41 61
0 65 -4 62 -61 l-4 -50 -63 3 c-35 1 -67 -1 -71 -5 -4 -4 -1 -7 7 -8 8 -1 3
-5 -11 -9 -25 -8 -25 -8 -2 -9 13 -1 21 -5 17 -11 -4 -6 -15 -6 -31 0 -14 6
-42 9 -62 9 -33 -2 -34 -2 -7 -6 77 -9 70 23 70 -310 l-1 -298 6 289 c3 179 9
291 15 293 7 2 9 -93 7 -274 -3 -283 0 -329 19 -317 6 4 34 7 62 7 36 0 52 -5
59 -17 10 -18 3 -36 -14 -36 -7 0 -6 5 2 15 10 12 8 15 -12 19 -49 10 -88 12
-88 4 0 -4 20 -8 45 -8 25 0 45 -4 45 -10 0 -5 -17 -10 -38 -10 -46 0 -50 -3
-45 -33 4 -21 53 -55 53 -37 0 20 -13 39 -22 34 -6 -4 -9 -1 -6 7 3 8 18 14
34 14 27 0 29 -3 35 -50 l6 -50 1 53 c2 61 22 63 22 2 0 -47 9 -72 22 -64 6 4
33 7 61 7 36 0 52 -5 59 -17 10 -18 3 -36 -14 -36 -7 0 -6 5 2 15 10 12 8 15
-12 19 -49 10 -88 12 -88 4 0 -4 20 -8 45 -8 25 0 45 -4 45 -10 0 -5 -18 -10
-39 -10 -22 0 -42 -3 -44 -7 -3 -5 16 -8 41 -8 l47 0 5 -130 6 -130 2 133 c1
86 6 131 12 127 6 -4 10 -56 10 -125 0 -123 5 -154 22 -144 6 4 33 7 61 7 36
0 52 -5 59 -17 10 -18 3 -36 -14 -36 -7 0 -6 5 2 15 10 12 8 15 -12 19 -49 10
-88 12 -88 4 0 -4 20 -8 45 -8 25 0 45 -4 45 -10 0 -5 -18 -10 -39 -10 -38 0
-57 -10 -44 -24 3 -3 12 -1 19 5 7 6 25 9 41 7 l28 -3 3 -447 2 -448 -51 0
c-36 0 -49 4 -46 13 2 6 12 12 23 12 14 0 20 8 22 33 4 36 -4 41 -24 15 -10
-15 -15 -16 -26 -5 -9 9 -10 15 -1 20 14 9 16 618 2 644 -6 12 -6 18 1 18 5 0
10 8 10 18 0 15 -2 15 -10 2 -8 -11 -9 -8 -4 11 3 17 1 30 -7 34 -8 5 -10 4
-5 -3 5 -9 -16 -12 -78 -12 -62 0 -86 -4 -87 -12 -1 -7 -2 -17 -4 -23 -1 -5
-3 -72 -3 -148 l-2 -138 -150 2 c-132 1 -150 3 -151 17 -1 10 -2 40 -4 67 -1
28 -2 56 -3 63 -1 8 -26 12 -82 12 l-80 0 0 80 0 80 -80 0 -80 0 0 -80 0 -80
-80 0 -80 0 0 -80 0 -80 -160 0 -160 0 0 80 0 80 -86 0 c-65 0 -84 3 -78 13 5
9 3 9 -7 -1 -12 -11 -12 -14 0 -21 10 -7 10 -10 1 -16 -18 -11 -28 12 -25 54
1 20 0 24 -2 9 -2 -16 -9 -28 -14 -28 -6 0 -9 -12 -7 -27 3 -24 7 -28 31 -25
28 3 28 2 13 -20 -13 -19 -16 -58 -16 -248 -1 -182 -3 -229 -15 -244 -17 -22
-21 -81 -5 -71 5 3 10 1 10 -5 0 -8 -19 -11 -57 -8 l-58 3 -3 -83 -3 -83 83 3
83 3 -2 63 -1 62 72 0 c73 0 73 0 68 -25 -4 -25 -22 -25 -22 1 0 10 -11 14
-37 13 l-38 -2 35 -7 c19 -4 26 -8 15 -9 -17 -1 -18 -3 -5 -14 9 -7 14 -25 12
-46 -2 -21 0 -31 7 -26 6 3 11 1 11 -5 0 -8 -19 -11 -57 -8 l-58 3 -3 -83 -3
-83 83 3 83 3 -2 63 -1 62 544 0 c356 0 544 3 544 10 0 6 7 10 15 10 8 0 15
-5 15 -12 0 -6 -3 -8 -7 -5 -15 16 -37 -38 -34 -85 l3 -48 -539 0 -538 1 -3
-80 -3 -81 561 0 560 0 0 80 0 80 80 0 80 0 0 80 0 80 80 0 80 0 0 80 0 80 80
0 80 0 0 480 0 480 -80 0 -80 0 0 160 0 160 -80 0 -80 0 0 80 0 80 -80 0 -80
0 0 320 0 320 80 0 80 0 0 160 0 160 -80 0 -80 0 0 80 0 80 -80 0 -80 0 0 80
0 80 -80 0 -80 0 0 80 0 80 -240 0 -240 0 0 -80z m796 -617 c-3 -21 -6 -53 -6
-70 0 -18 -4 -33 -10 -33 -13 0 -13 87 -1 95 6 3 8 14 6 25 -2 11 1 20 7 20 7
0 8 -14 4 -37z m-1 -753 c3 -5 1 -10 -4 -10 -6 0 -11 5 -11 10 0 6 2 10 4 10
3 0 8 -4 11 -10z m5 -35 c0 -8 -4 -15 -10 -15 -5 0 -7 7 -4 15 4 8 8 15 10 15
2 0 4 -7 4 -15z m155 -125 c3 -5 1 -10 -4 -10 -6 0 -11 5 -11 10 0 6 2 10 4
10 3 0 8 -4 11 -10z m5 -35 c0 -8 -4 -15 -10 -15 -5 0 -7 7 -4 15 4 8 8 15 10
15 2 0 4 -7 4 -15z m155 -285 c3 -5 1 -10 -4 -10 -6 0 -11 5 -11 10 0 6 2 10
4 10 3 0 8 -4 11 -10z m-1 -47 c-5 -2 -8 -193 -6 -453 2 -301 -1 -450 -8 -450
-16 0 -14 884 2 910 8 13 14 16 17 8 2 -7 0 -13 -5 -15z m-1618 -870 c-11 -11
-17 4 -9 23 7 18 8 18 11 1 2 -10 1 -21 -2 -24z m51 -49 c-3 -3 -12 -4 -19 -1
-8 3 -5 6 6 6 11 1 17 -2 13 -5z m1413 -6 c0 -6 -3 -8 -7 -5 -15 15 -37 -38
-34 -85 l2 -48 -51 0 c-37 0 -50 4 -47 13 2 6 12 12 23 12 16 0 19 7 19 40 0
22 5 43 10 47 6 4 1 8 -10 8 -16 0 -21 -6 -20 -27 0 -42 -30 -37 -32 5 l-1 32
59 0 c33 0 59 4 59 10 0 6 7 10 15 10 8 0 15 -5 15 -12z m-4 -40 c-3 -13 -6
-40 -6 -60 0 -56 -18 -46 -22 12 -2 36 0 49 9 46 7 -3 10 1 6 10 -3 7 0 14 7
14 8 0 10 -8 6 -22z m-1300 -65 c-11 -11 -17 4 -9 23 7 18 8 18 11 1 2 -10 1
-21 -2 -24z m51 -49 c-3 -3 -12 -4 -19 -1 -8 3 -5 6 6 6 11 1 17 -2 13 -5z
m1089 -46 c-3 -13 -6 -40 -6 -60 0 -56 -18 -46 -22 12 -2 36 0 49 9 46 7 -3
10 1 6 10 -3 7 0 14 7 14 8 0 10 -8 6 -22z"/>
<path d="M1456 3045 c-3 -8 -1 -15 4 -15 6 0 10 -4 10 -10 0 -5 -8 -7 -17 -3
-15 5 -16 3 -5 -8 6 -7 12 -33 12 -57 0 -30 4 -42 13 -40 16 6 21 82 7 109
-10 17 -9 23 1 30 11 7 11 9 -2 9 -9 0 -19 -7 -23 -15z m21 -107 c-2 -13 -4
-3 -4 22 0 25 2 35 4 23 2 -13 2 -33 0 -45z"/>
<path d="M763 3023 c9 -2 23 -2 30 0 6 3 -1 5 -18 5 -16 0 -22 -2 -12 -5z"/>
<path d="M1388 3023 c7 -3 16 -2 19 1 4 3 -2 6 -13 5 -11 0 -14 -3 -6 -6z"/>
<path d="M1443 2950 c0 -25 2 -35 4 -22 2 12 2 32 0 45 -2 12 -4 2 -4 -23z"/>
<path d="M812 2940 c0 -19 2 -27 5 -17 2 9 2 25 0 35 -3 9 -5 1 -5 -18z"/>
<path d="M550 2900 c0 -13 12 -17 68 -23 24 -3 40 -1 36 4 -3 5 -26 10 -52 11
l-47 1 45 7 45 7 -47 1 c-27 1 -48 -2 -48 -8z"/>
<path d="M677 2828 c4 -53 2 -78 -5 -78 -6 0 -13 21 -15 48 l-3 47 -2 -48 -2
-49 -57 4 -58 3 -3 -322 -2 -323 -80 0 -80 0 0 -80 0 -80 -80 0 -80 0 0 -160
0 -160 -80 0 -80 0 0 -480 0 -481 82 3 83 3 3 442 2 443 23 4 c12 3 38 7 57 9
l35 5 -1 -82 c-1 -76 0 -76 3 -11 3 50 8 73 20 83 16 11 15 12 -1 12 -12 0
-16 5 -12 15 3 8 1 15 -3 15 -5 0 -11 -7 -15 -15 -3 -10 -19 -15 -46 -15 -53
0 -52 18 2 23 l43 4 -47 1 c-46 2 -54 -4 -48 -33 1 -5 -2 -7 -6 -2 -4 4 -8 16
-9 26 -1 18 2 19 135 25 l25 1 3 127 c3 142 -4 130 82 141 l35 5 -1 -132 0
-131 3 120 c3 98 6 122 20 133 16 11 15 12 -1 12 -12 0 -16 5 -12 15 3 8 1 15
-3 15 -5 0 -11 -7 -15 -15 -3 -10 -19 -15 -46 -15 -53 0 -52 18 3 23 l42 4
-47 1 c-46 2 -54 -4 -48 -33 1 -5 -2 -7 -6 -2 -4 4 -8 16 -9 26 -1 18 2 19
135 25 23 1 25 6 28 48 3 52 2 51 82 61 l35 5 -1 -52 c-1 -38 0 -41 3 -11 2
22 11 46 20 53 15 11 15 12 -1 12 -12 0 -16 5 -12 15 3 8 1 15 -3 15 -5 0 -11
-7 -15 -15 -3 -10 -19 -15 -46 -15 -53 0 -52 18 3 23 l42 4 -47 1 c-46 2 -54
-4 -48 -33 1 -5 -2 -7 -6 -2 -4 4 -8 16 -9 26 -1 18 2 19 135 25 l25 1 0 298
0 297 35 5 c19 3 46 8 60 11 14 3 41 7 60 9 19 2 25 1 14 -1 -16 -4 -20 -11
-17 -25 3 -10 10 -19 15 -19 6 0 8 6 5 13 -3 9 39 11 197 9 110 -2 218 1 239
5 22 5 -58 7 -195 7 l-233 -2 232 7 c150 4 236 10 243 17 9 9 -62 12 -269 12
-243 0 -281 -2 -281 -15 0 -12 -10 -14 -44 -12 -24 2 -42 1 -39 -3 2 -5 -3 -8
-11 -8 -19 0 -21 26 -3 33 10 4 10 6 0 6 -8 1 -13 16 -14 39 0 20 -4 55 -9 77
-6 29 -7 19 -3 -37z m506 -95 c-57 -2 -149 -2 -205 0 -57 1 -11 3 102 3 113 0
159 -2 103 -3z"/>
<path d="M808 2693 c6 -2 18 -2 25 0 6 3 1 5 -13 5 -14 0 -19 -2 -12 -5z"/>
<path d="M1310 2690 c0 -5 5 -10 10 -10 6 0 10 5 10 10 0 6 -4 10 -10 10 -5 0
-10 -4 -10 -10z"/>
<path d="M1345 2690 c3 -5 8 -10 11 -10 2 0 4 5 4 10 0 6 -5 10 -11 10 -5 0
-7 -4 -4 -10z"/>
<path d="M810 2586 c0 -8 -3 -22 -7 -32 -4 -12 -2 -15 8 -12 15 5 21 58 7 58
-4 0 -8 -6 -8 -14z"/>
<path d="M1330 2576 c0 -2 7 -6 15 -10 8 -3 15 -1 15 4 0 6 -7 10 -15 10 -8 0
-15 -2 -15 -4z"/>
<path d="M1338 2543 c7 -3 16 -2 19 1 4 3 -2 6 -13 5 -11 0 -14 -3 -6 -6z"/>
<path d="M838 2533 c-2 -5 -1 -102 2 -218 l6 -210 2 218 c2 195 0 234 -10 210z"/>
<path d="M808 2388 c4 -261 8 -286 10 -70 1 116 -1 212 -5 212 -5 0 -7 -64 -5
-142z"/>
<path d="M1490 2070 c0 -5 5 -10 11 -10 5 0 7 5 4 10 -3 6 -8 10 -11 10 -2 0
-4 -4 -4 -10z"/>
<path d="M683 1995 c0 -27 2 -38 4 -22 2 15 2 37 0 50 -2 12 -4 0 -4 -28z"/>
<path d="M1491 2024 c0 -11 3 -14 6 -6 3 7 2 16 -1 19 -3 4 -6 -2 -5 -13z"/>
<path d="M1577 1976 c-6 -14 0 -26 13 -26 3 0 6 9 7 20 2 23 -12 27 -20 6z"/>
<path d="M1650 1910 c0 -5 5 -10 11 -10 5 0 7 5 4 10 -3 6 -8 10 -11 10 -2 0
-4 -4 -4 -10z"/>
<path d="M524 1755 c0 -71 1 -99 3 -62 2 37 2 96 0 130 -2 34 -3 4 -3 -68z"/>
<path d="M690 1710 l0 -80 80 0 80 0 0 80 0 80 -80 0 -80 0 0 -80z"/>
<path d="M1810 1590 c0 -5 5 -10 11 -10 5 0 7 5 4 10 -3 6 -8 10 -11 10 -2 0
-4 -4 -4 -10z"/>
<path d="M364 1450 c0 -63 1 -89 3 -57 2 31 2 83 0 115 -2 31 -3 5 -3 -58z"/>
<path d="M1856 1491 c-16 -18 -17 -23 -5 -50 18 -41 26 -39 31 9 5 52 -4 66
-26 41z"/>
<path d="M380 609 c0 -5 5 -7 10 -4 6 3 10 8 10 11 0 2 -4 4 -10 4 -5 0 -10
-5 -10 -11z"/>
<path d="M833 463 c141 -2 373 -2 515 0 141 1 25 2 -258 2 -283 0 -399 -1
-257 -2z"/>
<path d="M540 449 c0 -5 5 -7 10 -4 6 3 10 8 10 11 0 2 -4 4 -10 4 -5 0 -10
-5 -10 -11z"/>
<path d="M615 440 c4 -6 11 -8 16 -5 14 9 11 15 -7 15 -8 0 -12 -5 -9 -10z"/>
</g>
</svg>
